PathFileType	4	(X/Y/Z)	/Users/visionmauri/1_5_1_f_1_Sports2D/1_5_1_f_1_Sports2D_m_person00.trc
DataRate	CameraRate	NumFrames	NumMarkers	Units	OrigDataRate	OrigDataStartFrame	OrigNumFrames
30.0	30.0	10	22	m	30.0	324	432
Frame#	Time	Hip			RHip			RKnee			RAnkle			RBigToe			RSmallToe			RHeel			LHip			LKnee			LAnkle			LBigToe			LSmallToe			LHeel			Neck			Head			Nose			RShoulder			RElbow			RWrist			LShoulder			LElbow			LWrist			
		X1	Y1	Z1	X2	Y2	Z2	X3	Y3	Z3	X4	Y4	Z4	X5	Y5	Z5	X6	Y6	Z6	X7	Y7	Z7	X8	Y8	Z8	X9	Y9	Z9	X10	Y10	Z10	X11	Y11	Z11	X12	Y12	Z12	X13	Y13	Z13	X14	Y14	Z14	X15	Y15	Z15	X16	Y16	Z16	X17	Y17	Z17	X18	Y18	Z18	X19	Y19	Z19	X20	Y20	Z20	X21	Y21	Z21	X22	Y22	Z22
324	10.825058004640372	0.606826433004476	0.7606864990072669	0.0301	0.5231787434990006	0.7149490719985971	0.0301	0.6712213737599803	0.40569172009603854	0.129	0.8450701632575073	0.07686026613661896	0.023	0.9076359538266846	-0.01923616634811985	0.2179	0.8550050188693885	-0.03681510710282851	0.1804	0.8791443413802416	0.03273891770995113	-0.0119	0.6927738205137665	0.7921776458686003	0.0301	0.8150230414713081	0.5030198257448271	0.129	0.9580312777340689	0.1930968077996433	0.023	0.9917481254184622	0.08088098170366087	0.2179	1.0263415661517619	0.1117269172084215	0.1804	0.9733633896604124	0.1440278471461457	-0.0119	0.42242161505526377	1.2247001388686747	0.0008	0.3436861021929256	1.4276841534010218	0.0655	0.4164854856341041	1.2503716801692986	0.1076	0.2812992287071517	1.1205698515618134	-0.01275	0.3168790377441384	0.8884912040081473	0.0702	0.3346638023385177	0.6905030025656529	0.1076	0.5963559734760735	1.2633915918872902	-0.01275	0.7492487969100389	1.083984601873779	0.0702	0.8242860049013039	0.9375469581696729	0.1076
325	10.8584686774942	0.6085395513296468	0.7570450992428436	0.0301	0.5259664752049482	0.7075701835337868	0.0301	0.6769971808447729	0.3994552419028498	0.129	0.8528173541665063	0.06743144367107046	0.023	0.9165990291025576	-0.024058341766278087	0.2179	0.8639592122307829	-0.041297132938088656	0.1804	0.8858466442923828	0.022346964157161402	-0.0119	0.6950212742834156	0.7866287675068394	0.0301	0.8159594145604482	0.5016954808439872	0.129	0.9590940962648646	0.19275839025539973	0.023	0.9894480859678224	0.0765569534996354	0.2179	1.0264424068269216	0.10709002211266117	0.1804	0.974287625480067	0.14240013049688904	-0.0119	0.41946310645410895	1.2267903888283938	0.0008	0.34188178470444575	1.4296536045323123	0.0655	0.4133401002318121	1.2486877509716983	0.1076	0.2786703210022025	1.1212909589902433	-0.01275	0.314352128843866	0.8896154590608373	0.0702	0.33430921835975247	0.6912102893246926	0.1076	0.5933201687694607	1.2618948365210294	-0.01275	0.7513077884536082	1.0795976083185246	0.0702	0.8242567132136233	0.9370267752617691	0.1076
326	10.89187935034803	0.6093602022106097	0.7536081740589203	0.0301	0.5278857994162371	0.7017093108888716	0.0301	0.6822525119675952	0.39342417401835367	0.129	0.8588399722844775	0.061008620960505015	0.023	0.9238510995097524	-0.02999920811275332	0.2179	0.8702115006160128	-0.046956279749221466	0.1804	0.8907433821387484	0.015107014623099602	-0.0119	0.6972717439105435	0.7817475411962624	0.0301	0.8162236799171997	0.5012722675461578	0.129	0.9587708236674204	0.19275324670891517	0.023	0.9886339096287516	0.07389716473089958	0.2179	1.0265725957045395	0.10461598353320369	0.1804	0.9739713922019728	0.14024307338501973	-0.0119	0.4155814094978926	1.2286285513437047	0.0008	0.3394527082186297	1.431430073143071	0.0655	0.409637444809589	1.2506611211900749	0.1076	0.2743662577264679	1.120903199989178	-0.01275	0.31041148925805595	0.8929205786997535	0.0702	0.33452989103608183	0.6911573904047441	0.1076	0.5888582241223529	1.262737936629801	-0.01275	0.7525156933447937	1.0739331896034576	0.0702	0.8228311809185481	0.9349598717548526	0.1076
327	10.925290023201857	0.6090226122606683	0.752376131949412	0.0301	0.5272501730843594	0.7011611235143973	0.0301	0.6850760282451285	0.3906386939768049	0.129	0.8635401179744934	0.057518185679756695	0.023	0.9312522635670621	-0.03781829916554849	0.2179	0.876583973155571	-0.05559935687187912	0.1804	0.8940287514364823	0.011277367905630399	-0.0119	0.697297548657728	0.7813645904459794	0.0301	0.815550290853789	0.5010364198148429	0.129	0.957531777946825	0.1934784413017888	0.023	0.9923268280684978	0.07391610445798674	0.2179	1.0283401787752093	0.1060964249221784	0.1804	0.9706563012860027	0.13757655202805005	-0.0119	0.41174619796001466	1.2283229863163154	0.0008	0.33565327855229876	1.4329854667363209	0.0655	0.4051808877303885	1.253964309382341	0.1076	0.26910858151947037	1.119839883449316	-0.01275	0.3072982557355938	0.8966222167291857	0.0702	0.33407396778615955	0.6923434021516824	0.1076	0.5843101196862228	1.2656886754604963	-0.01275	0.7501109018025361	1.0708889842289537	0.0702	0.8214536211706635	0.9315957809716837	0.1076
328	10.958700696055685	0.608660709406357	0.7535096648882746	0.0301	0.5259333540776274	0.7028669632879164	0.0301	0.6861194304595172	0.39013646335246316	0.129	0.8665208481886991	0.056013984940224276	0.023	0.9376543527969311	-0.04453805628561467	0.2179	0.882663497723704	-0.06370628218325093	0.1804	0.8959732974112252	0.010562655112728359	-0.0119	0.6964303128954762	0.7825195822119282	0.0301	0.8143329161076919	0.5014471309989914	0.129	0.956294728762779	0.19452798825288875	0.023	0.9974049227269621	0.073971957819572	0.2179	1.0321004014312758	0.10817622568453727	0.1804	0.9660558917004105	0.13599615565827183	-0.0119	0.40736183775852763	1.2275239213897235	0.0008	0.33026357039218956	1.4337052369423178	0.0655	0.4004716710714757	1.2552912340736113	0.1076	0.26452036946328655	1.1182885900818962	-0.01275	0.3049388326856621	0.8979740930495659	0.0702	0.3328987303809327	0.6942531749548391	0.1076	0.5813262239029937	1.2675390652551044	-0.01275	0.7453126123956786	1.0724599872564542	0.0702	0.8243254702300354	0.9273947774529011	0.1076
329	10.992111368909514	0.6088219221968831	0.754553118670197	0.0301	0.5252831610655884	0.7025792364768266	0.0301	0.6865314333947823	0.3895638412287405	0.129	0.8674594956800582	0.05441223922023758	0.023	0.9409305105290464	-0.04845986947763771	0.2179	0.886002504995214	-0.06805679796041156	0.1804	0.8973538977340585	0.010297121686451173	-0.0119	0.6967916001788154	0.7805770662335797	0.0301	0.8133912304989157	0.5024808106634	0.129	0.9551807069033851	0.19632549172048797	0.023	0.9993316032069949	0.07222695557956689	0.2179	1.0357204516933496	0.10777692455944655	0.1804	0.9632515899528177	0.13835855966361021	-0.0119	0.4018318836675752	1.2285101238127387	0.0008	0.3237410007830711	1.433490741435355	0.0655	0.39511025201512584	1.2539895423219622	0.1076	0.2610610882593931	1.1165569367147634	-0.01275	0.30199742662935714	0.8967615412226498	0.0702	0.3314072235207455	0.695281292946421	0.1076	0.5798177246192139	1.2668143107356848	-0.01275	0.7421362203674737	1.0760019369219556	0.0702	0.8231345342724237	0.9377084890936686	0.1076
330	11.025522041763342	0.6082160951020144	0.7534485896055573	0.0301	0.5244508511287276	0.7004707261611188	0.0301	0.6853211133647222	0.3888987691805744	0.129	0.8676475183270475	0.051664560878797235	0.023	0.9411933525213184	-0.05034114277995041	0.2179	0.8865905307722369	-0.06919628999257812	0.1804	0.8991032698733525	0.007725433330192408	-0.0119	0.697656448158132	0.7773642914403086	0.0301	0.8127524479855719	0.5034251698766671	0.129	0.9539243745069873	0.19907270695125692	0.023	0.9985347284591739	0.07102249073078358	0.2179	1.0368949514367256	0.106560385389703	0.1804	0.9612741517545093	0.14532533186634564	-0.0119	0.3958253833891602	1.2304779099438394	0.0008	0.31779553213865963	1.4333483596873438	0.0655	0.3901043907617938	1.251461855938011	0.1076	0.25719535295197554	1.1145948198698177	-0.01275	0.2983146016388102	0.8955713045021361	0.0702	0.32897284907124935	0.6960946396956323	0.1076	0.5772771070054511	1.2660853081316508	-0.01275	0.7413676767142975	1.078205475197178	0.0702	0.8074110802987773	0.9710624674676289	0.1076
331	11.05893271461717	0.606017593969688	0.7511035948032497	0.0301	0.5233268045769587	0.6986196885059444	0.0301	0.6825305996630744	0.38909007763966963	0.129	0.8684971967462795	0.048493881924729455	0.023	0.9406077387013094	-0.050830900256346435	0.2179	0.8864402463893035	-0.06894342653448955	0.1804	0.9010871360626771	0.003507914001791572	-0.0119	0.6969578865589309	0.7767949907816832	0.0301	0.8125295880120498	0.5037343711807895	0.129	0.9529903120034586	0.2009220217833621	0.023	0.9982774598629551	0.07215408352511948	0.2179	1.0361663656560882	0.10655299520459964	0.1804	0.9578061661033758	0.153507351806114	-0.0119	0.3899007760149768	1.2319068542818181	0.0008	0.3128309561583413	1.4346066397924095	0.0655	0.38674750849815365	1.2499729018724441	0.1076	0.25173734038850987	1.112784099975744	-0.01275	0.2944072610402541	0.8965132001148027	0.0702	0.3256914250081695	0.6978498373292306	0.1076	0.5719122409385016	1.267328742401348	-0.01275	0.7411573374235411	1.078755653687845	0.0702	0.7838956997054886	1.0099320281856072	0.1076
332	11.092343387470999	0.6034567900656294	0.7501465924774928	0.0301	0.5229725946508793	0.6976200838754724	0.0301	0.680999395302527	0.39006190763268395	0.129	0.869915397154892	0.04635360061203959	0.023	0.9405661876732876	-0.05019129286341729	0.2179	0.8864957348040218	-0.0681456874807997	0.1804	0.9023165279983966	0.0005478759009975309	-0.0119	0.6949174696596678	0.7779679278027277	0.0301	0.81305162034562	0.5032353387127974	0.129	0.952659541072113	0.20035517956225374	0.023	0.99931297594491	0.0735921000266131	0.2179	1.0359154078915864	0.1069042620173778	0.1804	0.9543380116098427	0.15762321775650834	-0.0119	0.38467300345291244	1.2335583699238981	0.0008	0.3067999026840938	1.4371556851815048	0.0655	0.38231446762567695	1.2524914717037627	0.1076	0.24563618388015548	1.112527808521275	-0.01275	0.29012563722658	0.8990596443186122	0.0702	0.3229958188683981	0.6993415699147635	0.1076	0.5656568163811427	1.2690146691192237	-0.01275	0.7403878824573354	1.0790357258911836	0.0702	0.7613452651386514	1.0448800942717011	0.1076
333	11.125754060324827	0.6016010637814192	0.7520472093394193	0.0301	0.523180314840175	0.6973966800761929	0.0301	0.6818728406745506	0.3914440054561042	0.129	0.8709687608035492	0.04563014268439032	0.023	0.9408321734542944	-0.049772412748446584	0.2179	0.8865415304979906	-0.06783730698761307	0.1804	0.9028155675812828	-0.0005990710956461772	-0.0119	0.6932154431990019	0.7790484351838026	0.0301	0.8138560198978253	0.5022459566944012	0.129	0.9518364297159273	0.19918747568415102	0.023	1.0003712016115762	0.07294202092446077	0.2179	1.036507737049623	0.10649729769629618	0.1804	0.9530776364641999	0.1565871984079147	-0.0119	0.3808037718863242	1.2362279310612885	0.0008	0.29890657452364283	1.440324543739606	0.0655	0.3741550400900494	1.2592027075155963	0.1076	0.24034151564749928	1.1141429615073435	-0.01275	0.2852428938284771	0.9014156751730003	0.0702	0.3209287586412811	0.6993280118837096	0.1076	0.5613851719827054	1.2700662705785795	-0.01275	0.7384846916433342	1.0787768653460326	0.0702	0.7372301190252951	1.0836162926010102	0.1076
